HIERARCHY
ROOT hip
{
  OFFSET 0 0 0
  CHANNELS 6 Xposition Yposition Zposition Zrotation Yrotation Xrotation
  JOINT abdomen
  {
    OFFSET 0 20.6881 -0.73152
    CHANNELS 3 Zrotation Xrotation Yrotation
    JOINT chest
    {
      OFFSET 0 11.7043 -0.48768
      CHANNELS 3 Zrotation Xrotation Yrotation
      JOINT neck
      {
        OFFSET 0 22.1894 -2.19456
        CHANNELS 3 Zrotation Xrotation Yrotation
        JOINT head
        {
          OFFSET -0.24384 7.07133 1.2192
          CHANNELS 3 Zrotation Xrotation Yrotation
          JOINT leftEye
          {
            OFFSET 4.14528 8.04674 8.04672
            CHANNELS 3 Zrotation Xrotation Yrotation
            End Site
            {
              OFFSET 1 0 0
            }
          }
          JOINT rightEye
          {
            OFFSET -3.6576 8.04674 8.04672
            CHANNELS 3 Zrotation Xrotation Yrotation
            End Site
            {
              OFFSET 1 0 0
            }
          }
        }
      }
      JOINT rCollar
      {
        OFFSET -2.68224 19.2634 -4.8768
        CHANNELS 3 Zrotation Xrotation Yrotation
        JOINT rShldr
        {
          OFFSET -8.77824 -1.95073 1.46304
          CHANNELS 3 Zrotation Xrotation Yrotation
          JOINT rForeArm
          {
            OFFSET -28.1742 -1.7115 0.48768
            CHANNELS 3 Zrotation Xrotation Yrotation
            JOINT rHand
            {
              OFFSET -22.5879 0.773209 7.07136
              CHANNELS 3 Zrotation Xrotation Yrotation
              JOINT rThumb1
              {
                OFFSET -1.2192 -0.487915 3.41376
                CHANNELS 3 Zrotation Xrotation Yrotation
                JOINT rThumb2
                {
                  OFFSET -3.37035 -0.52449 3.41376
                  CHANNELS 3 Zrotation Xrotation Yrotation
                  End Site
                  {
                    OFFSET -1.78271 -1.18214 1.43049
                  }
                }
              }
              JOINT rIndex1
              {
                OFFSET -7.75947 0.938293 5.60832
                CHANNELS 3 Zrotation Xrotation Yrotation
                JOINT rIndex2
                {
                  OFFSET -2.54057 -0.884171 1.56538
                  CHANNELS 3 Zrotation Xrotation Yrotation
                  End Site
                  {
                    OFFSET -1.62519 -0.234802 1.16502
                  }
                }
              }
              JOINT rMid1
              {
                OFFSET -8.24714 1.18213 3.41376
                CHANNELS 3 Zrotation Xrotation Yrotation
                JOINT rMid2
                {
                  OFFSET -3.10165 -0.590103 1.0647
                  CHANNELS 3 Zrotation Xrotation Yrotation
                  End Site
                  {
                    OFFSET -2.48547 -0.328903 0.83742
                  }
                }
              }
              JOINT rRing1
              {
                OFFSET -8.82822 0.546677 1.51678
                CHANNELS 3 Zrotation Xrotation Yrotation
                JOINT rRing2
                {
                  OFFSET -2.60934 -0.819778 -0.0198488
                  CHANNELS 3 Zrotation Xrotation Yrotation
                  End Site
                  {
                    OFFSET -2.33842 -0.294052 0.168128
                  }
                }
              }
              JOINT rPinky1
              {
                OFFSET -8.27202 -0.0477905 -0.4584
                CHANNELS 3 Zrotation Xrotation Yrotation
                JOINT rPinky2
                {
                  OFFSET -1.82734 -0.647385 -0.700984
                  CHANNELS 3 Zrotation Xrotation Yrotation
                  End Site
                  {
                    OFFSET -1.69225 -0.51767 -0.607171
                  }
                }
              }
            }
          }
        }
      }
      JOINT lCollar
      {
        OFFSET 2.68224 19.2634 -4.8768
        CHANNELS 3 Zrotation Xrotation Yrotation
        JOINT lShldr
        {
          OFFSET 8.77824 -1.95073 1.46304
          CHANNELS 3 Zrotation Xrotation Yrotation
          JOINT lForeArm
          {
            OFFSET 28.1742 -1.7115 0.48768
            CHANNELS 3 Zrotation Xrotation Yrotation
            JOINT lHand
            {
              OFFSET 22.5879 0.773209 7.07136
              CHANNELS 3 Zrotation Xrotation Yrotation
              JOINT lThumb1
              {
                OFFSET 1.2192 -0.487915 3.41376
                CHANNELS 3 Zrotation Xrotation Yrotation
                JOINT lThumb2
                {
                  OFFSET 3.37035 -0.52449 3.41376
                  CHANNELS 3 Zrotation Xrotation Yrotation
                  End Site
                  {
                    OFFSET 1.78271 -1.18214 1.43049
                  }
                }
              }
              JOINT lIndex1
              {
                OFFSET 7.75947 0.938293 5.60832
                CHANNELS 3 Zrotation Xrotation Yrotation
                JOINT lIndex2
                {
                  OFFSET 2.54057 -0.884171 1.56538
                  CHANNELS 3 Zrotation Xrotation Yrotation
                  End Site
                  {
                    OFFSET 1.62519 -0.234802 1.16502
                  }
                }
              }
              JOINT lMid1
              {
                OFFSET 8.24714 1.18213 3.41376
                CHANNELS 3 Zrotation Xrotation Yrotation
                JOINT lMid2
                {
                  OFFSET 3.10165 -0.590103 1.0647
                  CHANNELS 3 Zrotation Xrotation Yrotation
                  End Site
                  {
                    OFFSET 2.48547 -0.328903 0.83742
                  }
                }
              }
              JOINT lRing1
              {
                OFFSET 8.82822 0.546677 1.51678
                CHANNELS 3 Zrotation Xrotation Yrotation
                JOINT lRing2
                {
                  OFFSET 2.60934 -0.819778 -0.0198488
                  CHANNELS 3 Zrotation Xrotation Yrotation
                  End Site
                  {
                    OFFSET 2.33842 -0.294052 0.168128
                  }
                }
              }
              JOINT lPinky1
              {
                OFFSET 8.27202 -0.0477905 -0.4584
                CHANNELS 3 Zrotation Xrotation Yrotation
                JOINT lPinky2
                {
                  OFFSET 1.82734 -0.647385 -0.700984
                  CHANNELS 3 Zrotation Xrotation Yrotation
                  End Site
                  {
                    OFFSET 1.69225 -0.51767 -0.607171
                  }
                }
              }
            }
          }
        }
      }
    }
  }
  JOINT rButtock
  {
    OFFSET -8.77824 4.35084 1.2192
    CHANNELS 3 Zrotation Xrotation Yrotation
    JOINT rThigh
    {
      OFFSET 0 -1.70687 -2.19456
      CHANNELS 3 Zrotation Xrotation Yrotation
      JOINT rShin
      {
        OFFSET 0 -36.8199 0.73152
        CHANNELS 3 Zrotation Xrotation Yrotation
        JOINT rFoot
        {
          OFFSET 0.73152 -45.1104 -5.12064
          CHANNELS 3 Zrotation Xrotation Yrotation
          End Site
          {
            OFFSET -1.1221 -3.69964 12.103
          }
        }
      }
    }
  }
  JOINT lButtock
  {
    OFFSET 8.77824 4.35084 1.2192
    CHANNELS 3 Zrotation Xrotation Yrotation
    JOINT lThigh
    {
      OFFSET 0 -1.70687 -2.19456
      CHANNELS 3 Zrotation Xrotation Yrotation
      JOINT lShin
      {
        OFFSET 0 -36.8199 0.73152
        CHANNELS 3 Zrotation Xrotation Yrotation
        JOINT lFoot
        {
          OFFSET -0.73152 -45.1104 -5.12064
          CHANNELS 3 Zrotation Xrotation Yrotation
          End Site
          {
            OFFSET 1.1221 -3.69964 12.103
          }
        }
      }
    }
  }
}
MOTION
Frames:	4
Frame Time:	0.03333
0.5355291068553925 -12.386676669120789 -14.04617726802826 -6.459531307220459 -37.387718200683594 1.838771104812622 -3.0640628337860107 18.244218826293945 12.299537658691406 -2.9224236011505127 -10.463739395141602 3.0085690021514893 -1.4022860527038574 10.44355583190918 5.993521213531494 2.2588181495666504 -22.206954956054688 12.413326263427734 -0.007088440470397472 0.3141794204711914 0.0583137571811676 -0.06322898715734482 -0.20153145492076874 -0.07181910425424576 0.016858752816915512 0.10392876714468002 -0.12295050919055939 23.83744239807129 62.072147369384766 43.478179931640625 -26.127099990844727 -45.620338439941406 95.13764190673828 -1.7124313116073608 -33.8202018737793 -5.682647705078125 -0.09356637299060822 0.027265768498182297 -0.16506332159042358 0.05689197778701782 0.002043899381533265 -0.009923791512846947 0.17308861017227173 -0.04772520437836647 -0.016555586829781532 7.793115615844727 5.372869491577148 0.4783918261528015 -0.12232396006584167 0.024217979982495308 -0.19775132834911346 2.727712392807007 0.895582377910614 0.1764584481716156 -0.20111092925071716 0.15056416392326355 0.04606044664978981 10.096282958984375 0.7963978052139282 0.1468546837568283 0.11462102830410004 -0.072522833943367 -0.13222281634807587 2.2886013984680176 -0.7652928829193115 -0.25536927580833435 0.19362561404705048 0.17959773540496826 -0.14770083129405975 -21.464433670043945 27.015443801879883 -50.155521392822266 28.6718692779541 -40.00729751586914 -82.712646484375 0.6081418395042419 -21.710790634155273 2.968836545944214 0.20855571329593658 0.27213045954704285 -0.060415301471948624 0.0025397338904440403 0.05533986538648605 -0.19280172884464264 -0.22979767620563507 0.21235916018486023 -0.11677122861146927 -7.731706142425537 5.537289619445801 -0.40078121423721313 -0.28332963585853577 0.3130929172039032 0.19983640313148499 -3.085200071334839 1.094129204750061 -0.10101515054702759 0.18668749928474426 -0.10010874271392822 -0.12512890994548798 -10.134821891784668 0.5866430997848511 0.04965905845165253 -0.13170528411865234 -0.026998447254300117 0.1810281127691269 -2.083869457244873 -0.7325019240379333 0.22056423127651215 -0.10212165117263794 -0.010819710791110992 -0.2517412304878235 -11.345166206359863 -28.032978057861328 0.12081143260002136 -1.2841047048568726 64.71200561523438 2.4822781085968018 -7.912788391113281 -24.060686111450195 -21.46471405029297 0.05345892906188965 0.07129736244678497 -0.0503254272043705 40.916439056396484 -50.52549362182617 25.74981689453125 0.25845807790756226 38.656585693359375 -0.30149081349372864 -8.024943351745605 26.578401565551758 15.529255867004395
0.5660312250256538 -12.44218647480011 -14.655346795916557 -6.823288440704346 -39.064998626708984 0.48189371824264526 -2.596684217453003 17.692012786865234 12.494607925415039 -3.3335964679718018 -9.24095344543457 3.153027296066284 -0.6106570363044739 10.100525856018066 7.133815288543701 1.4486960172653198 -22.121469497680664 14.426658630371094 -0.01833490841090679 0.28674131631851196 0.12514778971672058 0.08057770133018494 -0.24787624180316925 -0.13288135826587677 -0.06230255588889122 0.0514804944396019 -0.1131984144449234 50.91249465942383 64.16773223876953 11.883626937866211 -25.732147216796875 -46.37284469604492 96.67780303955078 -3.541651964187622 -45.1833381652832 -8.435201644897461 -0.07711136341094971 0.0035163620486855507 -0.17306989431381226 0.008386042900383472 0.10799355804920197 0.12011073529720306 0.1452183872461319 0.04471481963992119 -0.09244712442159653 7.79512882232666 5.388641834259033 0.42103680968284607 -0.19337987899780273 0.10772792249917984 -0.033897656947374344 2.808673858642578 0.8509351015090942 0.1727524846792221 -0.15971942245960236 0.045567143708467484 0.0951838493347168 10.043694496154785 0.727293074131012 0.15156717598438263 0.026977375149726868 -0.03842712938785553 -0.13212203979492188 2.237532615661621 -0.8091840744018555 -0.18317273259162903 0.23668450117111206 0.21670247614383698 -0.18644613027572632 -27.513715744018555 25.709617614746094 -43.57891082763672 28.78305435180664 -32.150516510009766 -69.46585845947266 0.45455750823020935 -16.23285484313965 2.112213611602783 0.17077729105949402 0.2609856426715851 -0.009863185696303844 -0.06678743660449982 0.1363295614719391 -0.34053027629852295 -0.2857222557067871 0.07497525960206985 -0.03578301891684532 -7.734837055206299 5.4618635177612305 -0.35088416934013367 -0.22249627113342285 0.21086546778678894 0.10929250717163086 -3.054213047027588 1.0632940530776978 -0.15887859463691711 0.09440617263317108 0.00890120305120945 -0.20051279664039612 -10.133394241333008 0.5614832639694214 0.08697614818811417 -0.13325127959251404 0.008434158749878407 0.07372690737247467 -2.1971561908721924 -0.6955241560935974 0.21900376677513123 -0.2884579300880432 -0.02774226665496826 -0.3428739309310913 -12.625781059265137 -24.570459365844727 1.6766886711120605 -1.196410059928894 62.97690200805664 2.4878978729248047 -7.810470104217529 -24.175228118896484 -21.872323989868164 0.1305219680070877 0.1709185242652893 -0.06224745884537697 40.08726501464844 -45.821022033691406 23.052242279052734 0.17452235519886017 34.87346267700195 -0.34392932057380676 -9.245753288269043 28.000324249267578 17.798513412475586
0.5632424727082253 -12.311230599880219 -15.245366841554642 -6.769761085510254 -40.53813171386719 0.3844001591205597 -1.937412977218628 17.62814712524414 12.31423568725586 -3.3209452629089355 -8.022241592407227 3.129162549972534 -0.2359776347875595 10.013553619384766 7.327441215515137 1.9926955699920654 -21.26252555847168 15.280284881591797 0.09931720793247223 0.1516028791666031 0.17291848361492157 0.08837300539016724 -0.14195658266544342 0.002152314642444253 -0.1342100203037262 0.14014670252799988 -0.028155164793133736 73.87600708007812 59.209022521972656 -15.24172306060791 -25.45209312438965 -46.918949127197266 97.665283203125 -6.730099201202393 -55.20447540283203 -12.158613204956055 0.022656869143247604 -0.13987916707992554 -0.08628273755311966 0.1453794687986374 0.140481635928154 -0.11796026676893234 0.2144240289926529 0.13480795919895172 -0.17581266164779663 7.730694770812988 5.234327793121338 0.33082354068756104 -0.05078599229454994 -0.08694859594106674 -0.0017841022927314043 2.8233890533447266 0.7446163892745972 0.0702643021941185 -0.023801831528544426 0.07603135704994202 0.003235422307625413 10.266678810119629 0.6522199511528015 -0.11314108967781067 -0.03849048912525177 -0.19838228821754456 -0.04132572561502457 2.268353223800659 -0.7950218915939331 -0.09747551381587982 0.24184083938598633 0.25801610946655273 -0.1182425245642662 -30.967884063720703 22.61453628540039 -39.010643005371094 26.376922607421875 -23.54555892944336 -55.539730072021484 0.06391755491495132 -5.1393938064575195 0.5411486625671387 0.017467867583036423 0.32585859298706055 -0.10889174789190292 -0.15718501806259155 0.31217584013938904 -0.239882230758667 -0.09545445442199707 0.03921256214380264 -0.1750454306602478 -7.795742511749268 5.58090877532959 -0.34076201915740967 -0.16947290301322937 0.24543531239032745 0.16478723287582397 -2.989373207092285 1.004714846611023 -0.10073250532150269 0.09038790315389633 0.18841679394245148 -0.2009216696023941 -10.236465454101562 0.595230758190155 0.07498042285442352 -0.19611705839633942 0.09124206006526947 0.08601274341344833 -2.324954032897949 -0.573025107383728 0.17116042971611023 -0.3576340973377228 0.1996486783027649 -0.3518524765968323 -14.316884994506836 -21.075525283813477 2.5607948303222656 -0.9876717925071716 61.09158706665039 2.36034893989563 -7.9191155433654785 -23.692903518676758 -22.138999938964844 0.17097724974155426 0.0978696271777153 -0.0943765938282013 39.86338424682617 -42.50542068481445 20.993310928344727 0.1598213016986847 32.6281852722168 -0.4473564028739929 -9.455584526062012 28.239910125732422 18.049596786499023
0.5337877199053764 -12.174071371555328 -15.752353519201279 -7.404963493347168 -41.61765670776367 -0.5269454121589661 -0.8960182070732117 17.584157943725586 11.606263160705566 -3.1576530933380127 -7.280834197998047 2.957890748977661 -0.008525135926902294 10.328325271606445 7.899569988250732 2.4409422874450684 -20.595993041992188 16.618541717529297 0.1884177327156067 0.10594939440488815 0.07714243233203888 0.1193784549832344 -0.025031678378582 0.06140800565481186 -0.1853170245885849 0.19477583467960358 0.005365194287151098 86.91032409667969 53.726322174072266 -32.54285430908203 -25.375497817993164 -46.959327697753906 97.9101333618164 -9.430876731872559 -60.51425552368164 -15.136184692382812 0.07276926189661026 -0.21346302330493927 0.026510296389460564 0.04458359256386757 0.2762901782989502 -0.10675852000713348 0.19894759356975555 0.0667233094573021 -0.17747032642364502 7.861838340759277 5.343656063079834 0.2991456687450409 -0.158433198928833 -0.15996141731739044 0.0022315375972539186 2.707695484161377 0.806527853012085 0.10383791476488113 0.059903111308813095 -0.059085067361593246 0.04677678272128105 10.31977653503418 0.6982161402702332 -0.13716168701648712 0.05582982674241066 -0.31296420097351074 0.09150092303752899 2.1841254234313965 -0.7145718336105347 -0.16843414306640625 0.16152729094028473 0.21167023479938507 -0.042987119406461716 -33.666622161865234 20.507232666015625 -37.5666389465332 22.11028289794922 -15.804006576538086 -42.77250671386719 0.39385488629341125 12.306517601013184 -1.979065179824829 -0.0655740275979042 0.26654306054115295 -0.13043397665023804 -0.18886877596378326 0.3003184199333191 -0.22051750123500824 -0.13722677528858185 0.016622744500637054 -0.08287852257490158 -7.751492500305176 5.558970928192139 -0.3772125244140625 0.050969548523426056 0.03425517678260803 0.07954210788011551 -2.9547955989837646 0.8817713856697083 -0.008304589428007603 0.04617813229560852 0.3081408441066742 -0.18002472817897797 -10.309013366699219 0.5919769406318665 0.11717018485069275 -0.19298921525478363 0.12582392990589142 0.08370468020439148 -2.3485114574432373 -0.5105656981468201 0.04813636466860771 -0.30125120282173157 0.11578989773988724 -0.38013318181037903 -15.016326904296875 -17.397356033325195 2.26985239982605 -0.8820227384567261 60.57121276855469 2.5379366874694824 -8.622620582580566 -23.611927032470703 -23.5087890625 0.1834091991186142 0.05420984700322151 -0.06305170804262161 40.654136657714844 -39.63875198364258 21.745824813842773 0.16755926609039307 32.865989685058594 -0.5511846542358398 -8.132347106933594 27.784860610961914 14.439437866210938
